# xmcd CD database file
#
# Track frame offsets:
#	150
#	19336
#	35611
#	61431
#	83437
#	99680
#	118610
#	135499
#	151827
#	170395
#	197008
#	216597
#	239111
#
# Disc length: 3354 seconds
#
# Revision: 0
# Processed by: cddbd v1.5.2PL0 Copyright (c) Steve Scherf et al.
# Submitted via: CdAid (MTCDDB.DLL V2003.12.21)
#
DISCID=b40d180d
DTITLE=Various Artist - Jovem Pan - Especial Tecno Pan
DYEAR=1999
DGENRE=Country
TTITLE0=Song 2
TTITLE1=Let's Go Dance
TTITLE2=Smack My Bitch Up
TTITLE3=Teardrops
TTITLE4=Crush (Remix)
TTITLE5=U.R. Automatic
TTITLE6=Nervous Breakdown
TTITLE7=Godfather
TTITLE8=Groove Jump
TTITLE9=Tea Bags
TTITLE10=Show Me Your Face
TTITLE11=Bom da de
TTITLE12=Celular Tecnophone
EXTD=ID3G:   2 YEAR: 1999
EXTT0=
EXTT1=
EXTT2=
EXTT3=
EXTT4=
EXTT5=
EXTT6=
EXTT7=
EXTT8=
EXTT9=
EXTT10=
EXTT11=
EXTT12=
PLAYORDER=
